<svg width="1024" height="1024" viewBox="0 0 1024 1024" fill="none" xmlns="http://www.w3.org/2000/svg">
<path fill-rule="evenodd" clip-rule="evenodd" d="M65.3104 260.612C153.311 105.16 319.953 0 511.454 0C794.532 0 1024.01 229.355 1024 512.218C1023.95 566.821 1015.14 621.062 997.902 672.873H27.2704C20.9234 653.066 16.6904 635.122 16.6904 635.122H727.76C773.191 635.122 810.707 611.877 828.143 572.907C847.086 530.505 839.071 486.248 811.21 447.749C781.073 406.125 730.517 347.7 695.502 321.229C630.995 272.423 549.012 265.263 482.312 263.039L463.163 262.333C461.212 262.252 459.361 262.172 457.565 262.096C430.889 260.956 416.367 260.335 268.045 260.335V260.386H268.014C268.014 260.386 134.081 260.468 65.3104 260.612ZM0 489.735C0.729316 472.48 2.31661 455.272 4.756 438.175H413.598V386.266H15.027C19.704 365.068 29.31 339.01 39.27 312.126C116.21 311.921 195.221 311.736 267.898 311.736C403.686 311.736 426.821 312.3 460.935 313.703C470.21 314.099 479.233 314.336 488.071 314.569C576.729 316.901 646.838 318.745 767.754 474.963C771.434 479.645 775.083 484.429 777.799 489.735H0ZM0.399 541.696H783.93C778.067 564.398 760.015 582.695 727.767 582.695H4.377C2.511 569.213 1.219 555.547 0.399 541.696ZM511.46 1024C164.941 1018.77 45.017 724.306 45.017 724.306H977.367C896.531 900.994 718.572 1024 511.46 1024Z" fill="#E4E1D6"/>
</svg>
