<svg width="800" height="800" viewBox="0 0 800 800" fill="none" xmlns="http://www.w3.org/2000/svg">
<g clip-path="url(#clip0_114_36)">
<path d="M289.362 85.1413H493.617C500.669 85.1413 506.383 79.4255 506.383 72.3753C506.383 65.3251 500.669 59.6094 493.617 59.6094H289.362C282.311 59.6094 276.596 65.3251 276.596 72.3753C276.596 79.4255 282.311 85.1413 289.362 85.1413Z" fill="#E4E1D6"/>
<path d="M196.618 437.027C175.5 437.027 158.32 454.207 158.32 475.325C158.32 496.444 175.5 513.623 196.618 513.623C217.736 513.623 234.916 496.444 234.916 475.325C234.916 454.207 217.736 437.027 196.618 437.027ZM196.618 488.091C189.578 488.091 183.852 482.365 183.852 475.325C183.852 468.285 189.578 462.559 196.618 462.559C203.658 462.559 209.384 468.285 209.384 475.325C209.384 482.365 203.658 488.091 196.618 488.091Z" fill="#E4E1D6"/>
<path d="M603.384 437.027C582.267 437.027 565.086 454.207 565.086 475.325C565.086 496.444 582.267 513.623 603.384 513.623C624.5 513.623 641.682 496.444 641.682 475.325C641.682 454.207 624.5 437.027 603.384 437.027ZM603.384 488.091C596.344 488.091 590.618 482.365 590.618 475.325C590.618 468.285 596.344 462.559 603.384 462.559C610.424 462.559 616.15 468.285 616.15 475.325C616.15 482.365 610.422 488.091 603.384 488.091Z" fill="#E4E1D6"/>
<path d="M612.918 0H187.083C143.066 0 107.256 35.8111 107.256 79.8264V551.92C107.256 558.97 112.972 564.686 120.022 564.686H124.278V651.066C124.278 676.877 145.275 697.874 171.086 697.874H191.33L162.065 727.139C162.051 727.152 110.994 778.209 110.994 778.209C107.343 781.86 106.25 787.352 108.227 792.121C110.203 796.892 114.858 800.002 120.021 800.002H679.978C685.141 800.002 689.798 796.892 691.772 792.121C693.748 787.35 692.657 781.86 689.006 778.209L637.942 727.147C637.941 727.146 608.671 697.876 608.671 697.876H628.914C654.724 697.876 675.723 676.878 675.723 651.067V564.688H679.978C687.03 564.688 692.744 558.972 692.744 551.922V79.8264C692.746 35.8111 656.936 0 612.918 0ZM187.083 25.5319H612.918C642.856 25.5319 667.212 49.8894 667.212 79.8264V119.219H132.788V79.8264C132.788 49.8894 157.146 25.5319 187.083 25.5319ZM667.214 539.154H132.788V144.752H387.234V383.227H171.086C164.036 383.227 158.32 388.943 158.32 395.993C158.32 403.043 164.036 408.759 171.086 408.759H628.916C635.968 408.759 641.682 403.043 641.682 395.993C641.682 388.943 635.968 383.227 628.916 383.227H412.766V144.752H667.212V539.154H667.214ZM354.683 564.686H445.318V621.278H354.683V564.686ZM150.843 774.468L176.375 748.936H623.627L649.159 774.468H150.843ZM598.096 723.404H201.907L227.438 697.872H572.564L598.096 723.404ZM650.193 651.066C650.193 662.798 640.649 672.342 628.916 672.342H171.086C159.353 672.342 149.81 662.798 149.81 651.066V564.686H329.151V634.044C329.151 641.094 334.867 646.81 341.917 646.81H458.084C465.136 646.81 470.85 641.094 470.85 634.044V564.686H650.191V651.066H650.193Z" fill="#E4E1D6"/>
</g>
<defs>
<clipPath id="clip0_114_36">
<rect width="800" height="800" fill="white"/>
</clipPath>
</defs>
</svg>
